<?xml version="1.0" standalone="no"?>
<!DOCTYPE svg PUBLIC "-//W3C//DTD SVG 20010904//EN"
 "http://www.w3.org/TR/2001/REC-SVG-20010904/DTD/svg10.dtd">
<svg version="1.0" xmlns="http://www.w3.org/2000/svg"
 width="1000.000000pt" height="1000.000000pt" viewBox="0 0 1000.000000 1000.000000"
 preserveAspectRatio="xMidYMid meet">
<metadata>
Created by potrace 1.11, written by Peter Selinger 2001-2013
</metadata>
<g transform="translate(0.000000,1000.000000) scale(0.100000,-0.100000)"
fill="#000000" stroke="none">
<path d="M6507 9484 c-60 -15 -183 -73 -244 -115 -57 -39 -161 -143 -200 -202
-15 -23 -32 -42 -38 -41 -5 0 -37 6 -70 14 -91 20 -274 16 -370 -9 -206 -53
-408 -199 -512 -371 -22 -36 -23 -37 -90 -38 -76 -1 -221 -11 -251 -17 -10 -2
-43 -6 -73 -10 -30 -3 -70 -10 -89 -15 -19 -5 -46 -11 -60 -14 -141 -29 -329
-97 -490 -178 -63 -32 -124 -64 -135 -71 -89 -55 -233 -156 -292 -206 l-72
-61 -1043 0 -1043 0 -51 -24 c-55 -26 -121 -95 -141 -149 -17 -46 -18 -5869
-1 -5918 27 -79 99 -150 172 -170 29 -8 463 -12 1485 -13 l1444 -1 112 -270
c62 -148 118 -281 123 -295 6 -14 19 -43 28 -65 9 -22 23 -56 31 -75 8 -19 19
-44 23 -55 4 -11 20 -46 34 -78 14 -32 26 -63 26 -70 0 -7 4 -17 8 -23 5 -5
39 -83 76 -174 86 -212 96 -230 137 -252 60 -32 149 -15 182 35 13 20 68 150
119 282 11 28 28 68 38 90 10 22 41 96 70 165 28 69 57 139 64 155 7 17 57
136 111 265 53 129 106 255 117 280 11 24 24 54 28 66 l9 22 1433 0 1433 0 51
21 c68 29 122 87 144 152 17 50 18 203 18 2976 l0 2924 -29 56 c-33 63 -65 94
-126 123 -42 20 -64 20 -1013 20 l-971 0 6 33 c13 69 8 224 -10 316 -8 43 -58
170 -86 220 -43 76 -89 134 -171 213 l-70 67 21 30 c23 31 108 106 151 132 28
17 106 49 132 54 88 18 137 135 89 212 -36 57 -97 78 -174 57z"/>
</g>
</svg>
