<svg width="1000" height="1000" viewBox="0 0 1000 1000" xmlns="http://www.w3.org/2000/svg"><title>Vanilla Box</title><g fill="none" fill-rule="evenodd"><path d="M148.975 184.838H849.92c14.346 0 25.975 11.629 25.975 25.974a25.975 25.975 0 0 1-9.494 20.077L165.456 806.303c-11.088 9.102-27.456 7.492-36.558-3.596a25.975 25.975 0 0 1-5.898-16.48V210.812c0-14.345 11.63-25.974 25.975-25.974z" fill="#6ECADC"/><path d="M849.892 812.172H148.945c-14.346 0-25.975-11.63-25.975-25.975a25.975 25.975 0 0 1 9.494-20.076L833.41 190.707c11.088-9.102 27.455-7.493 36.557 3.595a25.975 25.975 0 0 1 5.898 16.481v575.414c0 14.346-11.629 25.975-25.974 25.975z" fill="#3EB991"/><g transform="translate(242.625 50)" fill-rule="nonzero"><path fill="#E9A820" d="M101.642 511.728l156.441 373.665 155.261-373.665z"/><path d="M460.536 382.147c-5.663 0-10.854 1.178-15.81 3.298 12.506-26.623 19.349-56.073 19.349-87.408 0-114.032-92.496-206.388-206.7-206.388s-206.7 92.356-206.7 206.388c0 31.335 7.079 61.02 19.349 87.408-4.956-2.12-10.147-3.298-15.81-3.298-21.944 0-39.877 17.905-39.877 39.816S32.27 461.78 54.214 461.78c7.787 0 15.102-2.356 21.237-6.126-4.012 6.126-6.135 13.43-6.135 21.205 0 21.91 17.933 39.816 39.877 39.816 13.45 0 25.483-6.832 32.798-16.963-.236 1.414-.236 3.063-.236 4.476 0 21.911 17.933 39.817 39.877 39.817 16.045 0 29.731-9.424 36.102-22.853-.236 1.413-.236 2.827-.236 4.24 0 21.912 17.933 39.817 39.877 39.817 21.944 0 39.877-17.905 39.877-39.816 0-1.414 0-2.828-.236-4.241 6.371 13.43 20.057 22.853 36.102 22.853 21.944 0 39.877-17.906 39.877-39.817 0-1.413 0-3.062-.236-4.476 7.315 10.367 19.113 16.963 32.798 16.963 21.944 0 39.877-17.905 39.877-39.816 0-7.775-2.36-15.079-6.135-21.205 6.135 3.77 13.45 6.126 21.237 6.126 21.944 0 39.877-17.906 39.877-39.817 0-21.91-17.933-39.816-39.877-39.816z" fill="#FFF"/><ellipse fill="#E01563" cx="335.949" cy="118.979" rx="70.788" ry="70.681"/><ellipse fill="#E01563" cx="335.949" cy="118.979" rx="70.788" ry="70.681"/><path d="M466.67 368.246c7.551-22.618 11.563-46.178 11.563-70.445 0-59.136-23.596-113.089-61.586-152.67 2.596-8.246 4.248-16.963 4.248-26.152 0-28.037-13.922-53.01-34.922-68.56 5.19-7.775 14.63-17.906 31.146-22.147 7.55-1.885 12.034-9.66 10.146-17.199-1.887-7.539-9.674-12.015-17.225-10.13-26.899 7.067-41.764 24.266-49.315 36.989-7.787-2.356-16.045-3.534-24.54-3.534-31.618 0-59.461 17.434-73.855 43.35h-4.483c-121.755 0-220.858 98.954-220.858 220.524 0 24.267 3.776 47.827 11.562 70.445C21.652 371.78.888 394.634.888 422.435c0 29.685 24.303 53.952 54.034 53.952h.944v.943c0 24.267 16.045 44.764 37.99 51.597l150.07 358.586c.235 2.12.943 4.24 2.359 6.126 2.595 4.005 7.079 6.361 11.798 6.361h.708c4.719 0 9.202-2.356 11.798-6.361 1.18-1.885 2.123-4.005 2.36-6.126l149.597-358.586c21.944-6.833 37.99-27.33 37.99-51.597v-.943h.943c29.731 0 54.035-24.267 54.035-53.952-.944-28.037-21.944-50.89-48.843-54.189zM335.95 62.67c8.022 0 15.573 1.65 22.415 4.712 1.416 1.178 2.832 1.885 4.72 2.592.236 0 .472 0 .707.235 17.225 9.66 28.787 28.037 28.787 49.241 0 31.1-25.483 56.545-56.63 56.545-31.146 0-56.63-25.445-56.63-56.545s25.484-56.78 56.63-56.78zM257.61 847.932L124.058 528.927c2.832-.707 5.427-1.885 8.023-3.063 8.258 19.084 27.371 32.277 49.551 32.277 9.91 0 19.585-2.827 27.843-7.775 8.967 17.2 27.136 28.98 47.9 28.98s38.933-11.78 47.9-28.98c8.258 4.948 17.933 7.775 27.843 7.775 22.18 0 41.057-13.193 49.551-32.277 2.596 1.178 5.191 2.12 8.023 3.063L257.61 847.932zm202.925-400.288c-4.72 0-9.439-1.414-13.686-4.005-5.663-3.534-12.978-2.592-17.461 1.885-4.72 4.712-5.427 12.015-1.888 17.434 2.596 4.241 4.012 8.953 4.012 13.665 0 14.136-11.562 25.68-25.72 25.68-8.258 0-16.281-4.005-21-11.073-3.776-5.183-10.618-7.303-16.517-5.183-5.9 2.12-9.675 8.482-8.967 14.843.236 1.178.236 2.12.236 2.827 0 14.136-11.562 25.68-25.72 25.68-9.91 0-19.112-5.89-23.36-14.842-2.83-6.126-9.91-9.424-16.516-7.54-6.607 1.886-11.09 8.247-10.147 15.08 0 .942.236 1.884.236 2.59 0 14.137-11.562 25.681-25.72 25.681-14.157 0-25.719-11.544-25.719-25.68 0-.943 0-1.885.236-2.827.708-6.833-3.54-13.194-10.382-15.079-1.18-.471-2.595-.471-3.775-.471-5.427 0-10.382 3.063-12.742 8.01-4.247 8.953-13.45 14.843-23.36 14.843-14.158 0-25.72-11.544-25.72-25.68 0-.943 0-1.885.236-2.828.708-6.36-3.067-12.486-8.966-14.842-6.135-2.357-12.978-.236-16.517 5.183-4.72 6.832-12.742 11.073-21 11.073-14.158 0-25.72-11.544-25.72-25.68 0-4.713 1.416-9.66 4.011-13.665 3.54-5.655 2.832-12.959-1.887-17.435-4.72-4.712-12.034-5.419-17.461-1.885-4.012 2.592-8.73 4.005-13.686 4.005-14.157 0-25.72-11.544-25.72-25.68s11.563-25.68 25.72-25.68c3.54 0 6.843.706 10.146 2.12 5.427 2.356 11.562 1.178 15.81-3.063 4.01-4.241 5.19-10.602 2.595-15.786-12.034-25.68-18.169-53.01-18.169-81.518 0-104.136 83.53-189.188 187.116-192.016-.708 4.241-.944 8.718-.944 13.194 0 46.65 37.99 84.817 84.945 84.817 26.9 0 50.967-12.487 66.54-32.042 29.495 33.691 47.664 77.984 47.664 126.283 0 28.508-6.135 55.837-18.169 81.518-2.595 5.419-1.415 11.544 2.596 15.785s10.382 5.42 15.81 3.063c3.303-1.413 6.606-2.12 10.145-2.12 14.158 0 25.72 11.544 25.72 25.68-1.416 14.136-12.978 25.681-27.135 25.681z" fill="#180718"/></g></g></svg>